<?xml version="1.0" encoding="utf-8"?>
<!-- Generator: Adobe Illustrator 25.4.1, SVG Export Plug-In . SVG Version: 6.00 Build 0)  -->
<svg version="1.1" id="Warstwa_1" xmlns="http://www.w3.org/2000/svg" xmlns:xlink="http://www.w3.org/1999/xlink" x="0px" y="0px"
	 viewBox="0 0 1200 1200" style="enable-background:new 0 0 1200 1200;" xml:space="preserve">
<path d="M600,142.79c-96.46,0-185.88,30.1-259.43,81.38V6.34c-73,32.48-138.91,78.02-194.74,133.67v456.77
	c0,0.06,0,0.12,0,0.18c0,0.06,0,0.12,0,0.18v462.84c55.83,55.65,121.74,101.19,194.74,133.67v-223.9
	c73.55,51.28,162.97,81.38,259.43,81.38c250.83,0,454.17-203.34,454.17-454.17S850.83,142.79,600,142.79z M600,856.37
	c-143.27,0-259.41-116.14-259.41-259.41S456.73,337.56,600,337.56S859.41,453.7,859.41,596.96S743.27,856.37,600,856.37z" fill="#1a1a80"/>
</svg>